<svg width="80" height="18" viewBox="0 0 80 18" fill="none" xmlns="http://www.w3.org/2000/svg">
<path d="M13.8423 10.802C13.6171 11.0313 13.5136 11.3631 13.5649 11.6884L14.338 16.1847C14.4032 16.5657 14.2502 16.9514 13.9467 17.1716C13.6493 17.4001 13.2536 17.4275 12.9293 17.2447L9.07804 15.1337C8.94413 15.0588 8.79544 15.0186 8.64327 15.014H8.40762C8.32588 15.0268 8.24588 15.0542 8.17284 15.0962L4.32071 17.2173C4.13028 17.3179 3.91463 17.3535 3.70333 17.3179C3.18855 17.2155 2.84508 16.7001 2.92942 16.1563L3.70333 11.6601C3.75463 11.332 3.65115 10.9984 3.42594 10.7654L0.285976 7.56685C0.02337 7.29909 -0.0679333 6.89698 0.0520653 6.53418C0.168586 6.17228 0.465973 5.90817 0.825099 5.84877L5.14679 5.18987C5.47548 5.15423 5.76417 4.94404 5.91199 4.63333L7.81632 0.530045C7.86154 0.438658 7.9198 0.354582 7.99023 0.2833L8.06849 0.219329C8.10936 0.171808 8.15632 0.132511 8.20849 0.100526L8.30327 0.063971L8.45109 0H8.81718C9.14413 0.035641 9.43195 0.241262 9.58239 0.548322L11.5119 4.63333C11.6511 4.93216 11.9215 5.13961 12.2337 5.18987L16.5553 5.84877C16.9206 5.90361 17.2258 6.16863 17.3466 6.53418C17.4606 6.90064 17.3623 7.30274 17.0945 7.56685L13.8423 10.802Z" fill="#FABF35"/>
<path d="M34.7068 10.802C34.4816 11.0313 34.3781 11.3631 34.4294 11.6884L35.2025 16.1847C35.2677 16.5657 35.1147 16.9514 34.8112 17.1716C34.5138 17.4001 34.1181 17.4275 33.7938 17.2447L29.9425 15.1337C29.8086 15.0588 29.6599 15.0186 29.5078 15.014H29.2721C29.1904 15.0268 29.1104 15.0542 29.0373 15.0962L25.1852 17.2173C24.9948 17.3179 24.7791 17.3535 24.5678 17.3179C24.0531 17.2155 23.7096 16.7001 23.7939 16.1563L24.5678 11.6601C24.6191 11.332 24.5157 10.9984 24.2904 10.7654L21.1505 7.56685C20.8879 7.29909 20.7966 6.89698 20.9166 6.53418C21.0331 6.17228 21.3305 5.90817 21.6896 5.84877L26.0113 5.18987C26.34 5.15423 26.6287 4.94404 26.7765 4.63333L28.6808 0.530045C28.726 0.438658 28.7843 0.354582 28.8547 0.2833L28.933 0.219329C28.9739 0.171808 29.0208 0.132511 29.073 0.100526L29.1678 0.063971L29.3156 0H29.6817C30.0086 0.035641 30.2965 0.241262 30.4469 0.548322L32.3764 4.63333C32.5156 4.93216 32.786 5.13961 33.0982 5.18987L37.4198 5.84877C37.7851 5.90361 38.0903 6.16863 38.2111 6.53418C38.3251 6.90064 38.2268 7.30274 37.959 7.56685L34.7068 10.802Z" fill="#FABF35"/>
<path d="M55.5784 10.802C55.3532 11.0313 55.2497 11.3631 55.301 11.6884L56.0741 16.1847C56.1393 16.5657 55.9862 16.9514 55.6828 17.1716C55.3854 17.4001 54.9897 17.4275 54.6654 17.2447L50.8141 15.1337C50.6802 15.0588 50.5315 15.0186 50.3793 15.014H50.1437C50.062 15.0268 49.982 15.0542 49.9089 15.0962L46.0568 17.2173C45.8664 17.3179 45.6507 17.3535 45.4394 17.3179C44.9246 17.2155 44.5812 16.7001 44.6655 16.1563L45.4394 11.6601C45.4907 11.332 45.3872 10.9984 45.162 10.7654L42.0221 7.56685C41.7595 7.29909 41.6682 6.89698 41.7881 6.53418C41.9047 6.17228 42.2021 5.90817 42.5612 5.84877L46.8829 5.18987C47.2116 5.15423 47.5003 4.94404 47.6481 4.63333L49.5524 0.530045C49.5976 0.438658 49.6559 0.354582 49.7263 0.2833L49.8046 0.219329C49.8454 0.171808 49.8924 0.132511 49.9446 0.100526L50.0394 0.063971L50.1872 0H50.5533C50.8802 0.035641 51.168 0.241262 51.3185 0.548322L53.248 4.63333C53.3871 4.93216 53.6576 5.13961 53.9697 5.18987L58.2914 5.84877C58.6566 5.90361 58.9619 6.16863 59.0827 6.53418C59.1966 6.90064 59.0984 7.30274 58.8306 7.56685L55.5784 10.802Z" fill="#FABF35"/>
<path d="M76.4493 10.802C76.2241 11.0313 76.1206 11.3631 76.1719 11.6884L76.9449 16.1847C77.0101 16.5657 76.8571 16.9514 76.5536 17.1716C76.2562 17.4001 75.8606 17.4275 75.5362 17.2447L71.685 15.1337C71.5511 15.0588 71.4024 15.0186 71.2502 15.014H71.0146C70.9328 15.0268 70.8528 15.0542 70.7798 15.0962L66.9276 17.2173C66.7372 17.3179 66.5216 17.3535 66.3103 17.3179C65.7955 17.2155 65.452 16.7001 65.5364 16.1563L66.3103 11.6601C66.3616 11.332 66.2581 10.9984 66.0329 10.7654L62.8929 7.56685C62.6303 7.29909 62.539 6.89698 62.659 6.53418C62.7755 6.17228 63.0729 5.90817 63.432 5.84877L67.7537 5.18987C68.0824 5.15423 68.3711 4.94404 68.5189 4.63333L70.4233 0.530045C70.4685 0.438658 70.5267 0.354582 70.5972 0.2833L70.6754 0.219329C70.7163 0.171808 70.7632 0.132511 70.8154 0.100526L70.9102 0.063971L71.058 0H71.4241C71.7511 0.035641 72.0389 0.241262 72.1893 0.548322L74.1189 4.63333C74.258 4.93216 74.5284 5.13961 74.8406 5.18987L79.1623 5.84877C79.5275 5.90361 79.8327 6.16863 79.9536 6.53418C80.0675 6.90064 79.9692 7.30274 79.7014 7.56685L76.4493 10.802Z" fill="#FABF35"/>
</svg>
