<svg width="26" height="26" viewBox="0 0 26 26" fill="none" xmlns="http://www.w3.org/2000/svg">
<path d="M9.41943 2.38965H6.29443C5.43164 2.38965 4.73193 3.08936 4.73193 3.95215V7.07715C4.73193 7.93994 5.43164 8.63965 6.29443 8.63965H9.41943C10.2822 8.63965 10.9819 7.93994 10.9819 7.07715V3.95215C10.9819 3.08936 10.2822 2.38965 9.41943 2.38965ZM9.41943 10.2021H6.29443C5.43164 10.2021 4.73193 10.9019 4.73193 11.7646V14.8896C4.73193 15.7524 5.43164 16.4521 6.29443 16.4521H9.41943C10.2822 16.4521 10.9819 15.7524 10.9819 14.8896V11.7646C10.9819 10.9019 10.2822 10.2021 9.41943 10.2021ZM9.41943 18.0146H6.29443C5.43164 18.0146 4.73193 18.7144 4.73193 19.5771V22.7021C4.73193 23.5649 5.43164 24.2646 6.29443 24.2646H9.41943C10.2822 24.2646 10.9819 23.5649 10.9819 22.7021V19.5771C10.9819 18.7144 10.2822 18.0146 9.41943 18.0146ZM18.7944 2.38965H15.6694C14.8066 2.38965 14.1069 3.08936 14.1069 3.95215V7.07715C14.1069 7.93994 14.8066 8.63965 15.6694 8.63965H18.7944C19.6572 8.63965 20.3569 7.93994 20.3569 7.07715V3.95215C20.3569 3.08936 19.6572 2.38965 18.7944 2.38965ZM18.7944 10.2021H15.6694C14.8066 10.2021 14.1069 10.9019 14.1069 11.7646V14.8896C14.1069 15.7524 14.8066 16.4521 15.6694 16.4521H18.7944C19.6572 16.4521 20.3569 15.7524 20.3569 14.8896V11.7646C20.3569 10.9019 19.6572 10.2021 18.7944 10.2021ZM18.7944 18.0146H15.6694C14.8066 18.0146 14.1069 18.7144 14.1069 19.5771V22.7021C14.1069 23.5649 14.8066 24.2646 15.6694 24.2646H18.7944C19.6572 24.2646 20.3569 23.5649 20.3569 22.7021V19.5771C20.3569 18.7144 19.6572 18.0146 18.7944 18.0146Z" fill="black"/>
</svg>
