<svg width="62" height="19" viewBox="0 0 62 19" fill="none" xmlns="http://www.w3.org/2000/svg">
<path d="M14.5128 11.8197C14.2767 12.0707 14.1682 12.4337 14.222 12.7896L15.0325 17.7093C15.1008 18.1263 14.9404 18.5482 14.6222 18.7892C14.3104 19.0392 13.8956 19.0692 13.5555 18.8692L9.51775 16.5594C9.37735 16.4774 9.22145 16.4334 9.06191 16.4284H8.81485C8.72915 16.4424 8.64528 16.4724 8.5687 16.5184L4.52999 18.8392C4.33033 18.9492 4.10424 18.9882 3.8827 18.9492C3.34299 18.8372 2.98288 18.2733 3.07131 17.6783L3.8827 12.7586C3.93649 12.3997 3.828 12.0347 3.59188 11.7797L0.299827 8.27993C0.0245019 7.98695 -0.0712237 7.54698 0.0545871 7.15001C0.176751 6.75404 0.488543 6.46506 0.865064 6.40006L5.39608 5.67911C5.74069 5.64011 6.04336 5.41013 6.19835 5.07015L8.19491 0.580449C8.24232 0.480456 8.3034 0.388462 8.37725 0.310468L8.4593 0.240472C8.50214 0.188476 8.55137 0.145479 8.60607 0.110481L8.70545 0.0704836L8.86043 0.000488281H9.24425C9.58703 0.0394857 9.8888 0.264471 10.0465 0.600448L12.0695 5.07015C12.2154 5.39713 12.4989 5.62411 12.8262 5.67911L17.3572 6.40006C17.7401 6.46006 18.0601 6.75004 18.1868 7.15001C18.3063 7.55098 18.2033 7.99095 17.9225 8.27993L14.5128 11.8197Z" fill="#FABF35"/>
<path d="M36.3954 11.8197C36.1592 12.0707 36.0508 12.4337 36.1045 12.7896L36.915 17.7093C36.9834 18.1263 36.8229 18.5482 36.5048 18.7892C36.193 19.0392 35.7782 19.0692 35.4381 18.8692L31.4003 16.5594C31.2599 16.4774 31.104 16.4334 30.9445 16.4284H30.6974C30.6117 16.4424 30.5278 16.4724 30.4513 16.5184L26.4126 18.8392C26.2129 18.9492 25.9868 18.9882 25.7653 18.9492C25.2256 18.8372 24.8654 18.2733 24.9539 17.6783L25.7653 12.7586C25.8191 12.3997 25.7106 12.0347 25.4744 11.7797L22.1824 8.27993C21.9071 7.98695 21.8113 7.54698 21.9372 7.15001C22.0593 6.75404 22.3711 6.46506 22.7476 6.40006L27.2786 5.67911C27.6233 5.64011 27.9259 5.41013 28.0809 5.07015L30.0775 0.580449C30.1249 0.480456 30.186 0.388462 30.2598 0.310468L30.3419 0.240472C30.3847 0.188476 30.4339 0.145479 30.4886 0.110481L30.588 0.0704836L30.743 0.000488281H31.1268C31.4696 0.0394857 31.7714 0.264471 31.9291 0.600448L33.9521 5.07015C34.098 5.39713 34.3815 5.62411 34.7088 5.67911L39.2398 6.40006C39.6227 6.46006 39.9427 6.75004 40.0694 7.15001C40.1888 7.55098 40.0858 7.99095 39.805 8.27993L36.3954 11.8197Z" fill="#FABF35"/>
<path d="M58.277 11.8197C58.0408 12.0707 57.9323 12.4337 57.9861 12.7896L58.7966 17.7093C58.865 18.1263 58.7045 18.5482 58.3864 18.7892C58.0746 19.0392 57.6598 19.0692 57.3197 18.8692L53.2819 16.5594C53.1415 16.4774 52.9856 16.4334 52.8261 16.4284H52.579C52.4933 16.4424 52.4094 16.4724 52.3329 16.5184L48.2941 18.8392C48.0945 18.9492 47.8684 18.9882 47.6469 18.9492C47.1071 18.8372 46.747 18.2733 46.8355 17.6783L47.6469 12.7586C47.7006 12.3997 47.5922 12.0347 47.356 11.7797L44.064 8.27993C43.7887 7.98695 43.6929 7.54698 43.8187 7.15001C43.9409 6.75404 44.2527 6.46506 44.6292 6.40006L49.1602 5.67911C49.5048 5.64011 49.8075 5.41013 49.9625 5.07015L51.9591 0.580449C52.0065 0.480456 52.0676 0.388462 52.1414 0.310468L52.2235 0.240472C52.2663 0.188476 52.3155 0.145479 52.3702 0.110481L52.4696 0.0704836L52.6246 0.000488281H53.0084C53.3512 0.0394857 53.653 0.264471 53.8107 0.600448L55.8337 5.07015C55.9795 5.39713 56.2631 5.62411 56.5904 5.67911L61.1214 6.40006C61.5043 6.46006 61.8243 6.75004 61.951 7.15001C62.0704 7.55098 61.9674 7.99095 61.6866 8.27993L58.277 11.8197Z" fill="#FABF35"/>
</svg>
