<svg width="92" height="18" viewBox="0 0 92 18" fill="none" xmlns="http://www.w3.org/2000/svg">
<path d="M12.6249 11.4064C12.4195 11.6369 12.3251 11.9702 12.3719 12.297L13.0769 16.8144C13.1364 17.1973 12.9968 17.5847 12.72 17.806C12.4488 18.0356 12.088 18.0631 11.7921 17.8795L8.27961 15.7585C8.15747 15.6832 8.02186 15.6428 7.88307 15.6382H7.66815C7.5936 15.6511 7.52064 15.6786 7.45402 15.7209L3.94069 17.8519C3.76701 17.9529 3.57033 17.9887 3.37761 17.9529C2.90811 17.8501 2.59484 17.3322 2.67177 16.7859L3.37761 12.2686C3.4244 11.9389 3.33002 11.6038 3.12462 11.3697L0.260823 8.15611C0.0213146 7.88709 -0.0619584 7.4831 0.047486 7.11859C0.153758 6.75499 0.42499 6.48964 0.75253 6.42996L4.69411 5.76797C4.9939 5.73216 5.2572 5.52098 5.39202 5.2088L7.12886 1.08625C7.1701 0.99443 7.22323 0.909959 7.28747 0.838342L7.35885 0.77407C7.39612 0.726326 7.43895 0.686845 7.48653 0.654709L7.57298 0.617982L7.7078 0.553711H8.04169C8.33988 0.589519 8.60239 0.796106 8.73959 1.10461L10.4994 5.2088C10.6263 5.50904 10.873 5.71747 11.1577 5.76797L15.0993 6.42996C15.4324 6.48505 15.7107 6.75132 15.821 7.11859C15.9249 7.48677 15.8352 7.89076 15.591 8.15611L12.6249 11.4064Z" fill="#FABF35"/>
<path d="M31.6608 11.4064C31.4554 11.6369 31.361 11.9702 31.4078 12.297L32.1128 16.8144C32.1723 17.1973 32.0327 17.5847 31.7559 17.806C31.4847 18.0356 31.1238 18.0631 30.828 17.8795L27.3155 15.7585C27.1934 15.6832 27.0577 15.6428 26.919 15.6382H26.704C26.6295 15.6511 26.5565 15.6786 26.4899 15.7209L22.9766 17.8519C22.8029 17.9529 22.6062 17.9887 22.4135 17.9529C21.944 17.8501 21.6307 17.3322 21.7077 16.7859L22.4135 12.2686C22.4603 11.9389 22.3659 11.6038 22.1605 11.3697L19.2967 8.15611C19.0572 7.88709 18.9739 7.4831 19.0834 7.11859C19.1896 6.75499 19.4609 6.48964 19.7884 6.42996L23.73 5.76797C24.0298 5.73216 24.2931 5.52098 24.4279 5.2088L26.1647 1.08625C26.206 0.99443 26.2591 0.909959 26.3234 0.838342L26.3947 0.77407C26.432 0.726326 26.4748 0.686845 26.5224 0.654709L26.6089 0.617982L26.7437 0.553711H27.0776C27.3758 0.589519 27.6383 0.796106 27.7755 1.10461L29.5353 5.2088C29.6622 5.50904 29.9089 5.71747 30.1936 5.76797L34.1352 6.42996C34.4682 6.48505 34.7466 6.75132 34.8569 7.11859C34.9607 7.48677 34.8711 7.89076 34.6269 8.15611L31.6608 11.4064Z" fill="#FABF35"/>
<path d="M50.6903 11.4064C50.4849 11.6369 50.3905 11.9702 50.4373 12.297L51.1424 16.8144C51.2018 17.1973 51.0623 17.5847 50.7855 17.806C50.5142 18.0356 50.1534 18.0631 49.8576 17.8795L46.345 15.7585C46.2229 15.6832 46.0873 15.6428 45.9485 15.6382H45.7336C45.659 15.6511 45.5861 15.6786 45.5194 15.7209L42.0061 17.8519C41.8324 17.9529 41.6358 17.9887 41.443 17.9529C40.9735 17.8501 40.6603 17.3322 40.7372 16.7859L41.443 12.2686C41.4898 11.9389 41.3955 11.6038 41.19 11.3697L38.3263 8.15611C38.0867 7.88709 38.0035 7.4831 38.1129 7.11859C38.2192 6.75499 38.4904 6.48964 38.818 6.42996L42.7595 5.76797C43.0593 5.73216 43.3226 5.52098 43.4575 5.2088L45.1943 1.08625C45.2355 0.99443 45.2887 0.909959 45.3529 0.838342L45.4243 0.77407C45.4616 0.726326 45.5044 0.686845 45.552 0.654709L45.6384 0.617982L45.7732 0.553711H46.1071C46.4053 0.589519 46.6678 0.796106 46.805 1.10461L48.5649 5.2088C48.6917 5.50904 48.9384 5.71747 49.2231 5.76797L53.1647 6.42996C53.4978 6.48505 53.7762 6.75132 53.8864 7.11859C53.9903 7.48677 53.9007 7.89076 53.6564 8.15611L50.6903 11.4064Z" fill="#FABF35"/>
<path d="M69.7262 11.4064C69.5208 11.6369 69.4264 11.9702 69.4732 12.297L70.1782 16.8144C70.2377 17.1973 70.0981 17.5847 69.8214 17.806C69.5501 18.0356 69.1893 18.0631 68.8935 17.8795L65.3809 15.7585C65.2588 15.6832 65.1232 15.6428 64.9844 15.6382H64.7695C64.6949 15.6511 64.622 15.6786 64.5553 15.7209L61.042 17.8519C60.8683 17.9529 60.6716 17.9887 60.4789 17.9529C60.0094 17.8501 59.6962 17.3322 59.7731 16.7859L60.4789 12.2686C60.5257 11.9389 60.4313 11.6038 60.2259 11.3697L57.3621 8.15611C57.1226 7.88709 57.0394 7.4831 57.1488 7.11859C57.2551 6.75499 57.5263 6.48964 57.8538 6.42996L61.7954 5.76797C62.0952 5.73216 62.3585 5.52098 62.4933 5.2088L64.2302 1.08625C64.2714 0.99443 64.3246 0.909959 64.3888 0.838342L64.4602 0.77407C64.4974 0.726326 64.5403 0.686845 64.5879 0.654709L64.6743 0.617982L64.8091 0.553711H65.143C65.4412 0.589519 65.7037 0.796106 65.8409 1.10461L67.6007 5.2088C67.7276 5.50904 67.9743 5.71747 68.259 5.76797L72.2006 6.42996C72.5337 6.48505 72.812 6.75132 72.9223 7.11859C73.0262 7.48677 72.9366 7.89076 72.6923 8.15611L69.7262 11.4064Z" fill="#FABF35"/>
<path d="M88.7613 11.4064C88.5559 11.6369 88.4616 11.9702 88.5084 12.297L89.2134 16.8144C89.2729 17.1973 89.1333 17.5847 88.8565 17.806C88.5853 18.0356 88.2244 18.0631 87.9286 17.8795L84.4161 15.7585C84.2939 15.6832 84.1583 15.6428 84.0195 15.6382H83.8046C83.7301 15.6511 83.6571 15.6786 83.5905 15.7209L80.0772 17.8519C79.9035 17.9529 79.7068 17.9887 79.5141 17.9529C79.0446 17.8501 78.7313 17.3322 78.8082 16.7859L79.5141 12.2686C79.5609 11.9389 79.4665 11.6038 79.2611 11.3697L76.3973 8.15611C76.1578 7.88709 76.0745 7.4831 76.184 7.11859C76.2902 6.75499 76.5615 6.48964 76.889 6.42996L80.8306 5.76797C81.1304 5.73216 81.3937 5.52098 81.5285 5.2088L83.2653 1.08625C83.3066 0.99443 83.3597 0.909959 83.4239 0.838342L83.4953 0.77407C83.5326 0.726326 83.5754 0.686845 83.623 0.654709L83.7095 0.617982L83.8443 0.553711H84.1782C84.4764 0.589519 84.7389 0.796106 84.8761 1.10461L86.6359 5.2088C86.7628 5.50904 87.0094 5.71747 87.2942 5.76797L91.2357 6.42996C91.5688 6.48505 91.8472 6.75132 91.9574 7.11859C92.0613 7.48677 91.9717 7.89076 91.7274 8.15611L88.7613 11.4064Z" fill="#FABF35"/>
</svg>
