<svg width="165" height="27" viewBox="0 0 165 27" fill="none" xmlns="http://www.w3.org/2000/svg">
<path d="M22.6201 16.7957C22.252 17.1524 22.0829 17.6682 22.1668 18.174L23.43 25.1652C23.5366 25.7577 23.2865 26.3573 22.7906 26.6998C22.3046 27.055 21.6581 27.0977 21.128 26.8135L14.8346 23.5311C14.6158 23.4145 14.3728 23.352 14.1241 23.3449H13.7391C13.6055 23.3648 13.4748 23.4074 13.3554 23.4728L7.06056 26.7708C6.74937 26.9271 6.39698 26.9826 6.05168 26.9271C5.21048 26.768 4.6492 25.9666 4.78703 25.1211L6.05168 18.13C6.13552 17.6199 5.96643 17.1012 5.5984 16.7389L0.467319 11.7655C0.0381894 11.3492 -0.111011 10.724 0.085081 10.1598C0.275489 9.59715 0.761457 9.18649 1.34831 9.09413L8.41047 8.06962C8.94759 8.0142 9.41935 7.68738 9.66092 7.20426L12.7728 0.824155C12.8467 0.68206 12.9419 0.551332 13.057 0.440497L13.1849 0.34103C13.2517 0.26714 13.3284 0.206039 13.4137 0.156305L13.5685 0.099467L13.8101 0H14.4083C14.9426 0.0554174 15.413 0.375133 15.6588 0.852575L18.8119 7.20426C19.0392 7.66891 19.4812 7.99147 19.9913 8.06962L27.0534 9.09413C27.6502 9.17939 28.149 9.59146 28.3465 10.1598C28.5327 10.7297 28.3721 11.3549 27.9344 11.7655L22.6201 16.7957Z" fill="#FABF35"/>
<path d="M56.7238 16.7957C56.3558 17.1524 56.1867 17.6682 56.2705 18.174L57.5338 25.1652C57.6403 25.7577 57.3902 26.3573 56.8943 26.6998C56.4084 27.055 55.7618 27.0977 55.2318 26.8135L48.9384 23.5311C48.7196 23.4145 48.4766 23.352 48.2279 23.3449H47.8428C47.7093 23.3648 47.5785 23.4074 47.4592 23.4728L41.1643 26.7708C40.8531 26.9271 40.5007 26.9826 40.1554 26.9271C39.3142 26.768 38.753 25.9666 38.8908 25.1211L40.1554 18.13C40.2393 17.6199 40.0702 17.1012 39.7022 16.7389L34.5711 11.7655C34.1419 11.3492 33.9927 10.724 34.1888 10.1598C34.3792 9.59715 34.8652 9.18649 35.4521 9.09413L42.5142 8.06962C43.0514 8.0142 43.5231 7.68738 43.7647 7.20426L46.8766 0.824155C46.9505 0.68206 47.0457 0.551332 47.1608 0.440497L47.2887 0.34103C47.3554 0.26714 47.4322 0.206039 47.5174 0.156305L47.6723 0.099467L47.9139 0H48.5121C49.0464 0.0554174 49.5167 0.375133 49.7625 0.852575L52.9156 7.20426C53.143 7.66891 53.5849 7.99147 54.095 8.06962L61.1572 9.09413C61.754 9.17939 62.2528 9.59146 62.4503 10.1598C62.6364 10.7297 62.4758 11.3549 62.0382 11.7655L56.7238 16.7957Z" fill="#FABF35"/>
<path d="M90.8237 16.7957C90.4556 17.1524 90.2865 17.6682 90.3704 18.174L91.6336 25.1652C91.7402 25.7577 91.4901 26.3573 90.9942 26.6998C90.5082 27.055 89.8617 27.0977 89.3317 26.8135L83.0382 23.5311C82.8194 23.4145 82.5764 23.352 82.3278 23.3449H81.9427C81.8091 23.3648 81.6784 23.4074 81.559 23.4728L75.2642 26.7708C74.953 26.9271 74.6006 26.9826 74.2553 26.9271C73.4141 26.768 72.8528 25.9666 72.9906 25.1211L74.2553 18.13C74.3391 17.6199 74.17 17.1012 73.802 16.7389L68.6709 11.7655C68.2418 11.3492 68.0926 10.724 68.2887 10.1598C68.4791 9.59715 68.9651 9.18649 69.5519 9.09413L76.6141 8.06962C77.1512 8.0142 77.623 7.68738 77.8645 7.20426L80.9764 0.824155C81.0503 0.68206 81.1455 0.551332 81.2606 0.440497L81.3885 0.34103C81.4553 0.26714 81.532 0.206039 81.6173 0.156305L81.7722 0.099467L82.0137 0H82.6119C83.1462 0.0554174 83.6166 0.375133 83.8624 0.852575L87.0155 7.20426C87.2428 7.66891 87.6848 7.99147 88.1949 8.06962L95.2571 9.09413C95.8539 9.17939 96.3526 9.59146 96.5501 10.1598C96.7363 10.7297 96.5757 11.3549 96.138 11.7655L90.8237 16.7957Z" fill="#FABF35"/>
<path d="M124.927 16.7957C124.559 17.1524 124.39 17.6682 124.474 18.174L125.737 25.1652C125.843 25.7577 125.593 26.3573 125.097 26.6998C124.611 27.055 123.965 27.0977 123.435 26.8135L117.142 23.5311C116.923 23.4145 116.68 23.352 116.431 23.3449H116.046C115.912 23.3648 115.782 23.4074 115.662 23.4728L109.367 26.7708C109.056 26.9271 108.704 26.9826 108.359 26.9271C107.517 26.768 106.956 25.9666 107.094 25.1211L108.359 18.13C108.442 17.6199 108.273 17.1012 107.905 16.7389L102.774 11.7655C102.345 11.3492 102.196 10.724 102.392 10.1598C102.582 9.59715 103.068 9.18649 103.655 9.09413L110.717 8.06962C111.254 8.0142 111.726 7.68738 111.968 7.20426L115.08 0.824155C115.154 0.68206 115.249 0.551332 115.364 0.440497L115.492 0.34103C115.559 0.26714 115.635 0.206039 115.721 0.156305L115.875 0.099467L116.117 0H116.715C117.25 0.0554174 117.72 0.375133 117.966 0.852575L121.119 7.20426C121.346 7.66891 121.788 7.99147 122.298 8.06962L129.36 9.09413C129.957 9.17939 130.456 9.59146 130.653 10.1598C130.84 10.7297 130.679 11.3549 130.241 11.7655L124.927 16.7957Z" fill="#FABF35"/>
<path d="M159.034 16.7957C158.666 17.1524 158.497 17.6682 158.581 18.174L159.844 25.1652C159.95 25.7577 159.7 26.3573 159.204 26.6998C158.718 27.055 158.072 27.0977 157.542 26.8135L151.248 23.5311C151.03 23.4145 150.787 23.352 150.538 23.3449H150.153C150.019 23.3648 149.889 23.4074 149.769 23.4728L143.474 26.7708C143.163 26.9271 142.811 26.9826 142.466 26.9271C141.624 26.768 141.063 25.9666 141.201 25.1211L142.466 18.13C142.549 17.6199 142.38 17.1012 142.012 16.7389L136.881 11.7655C136.452 11.3492 136.303 10.724 136.499 10.1598C136.689 9.59715 137.175 9.18649 137.762 9.09413L144.824 8.06962C145.361 8.0142 145.833 7.68738 146.075 7.20426L149.187 0.824155C149.261 0.68206 149.356 0.551332 149.471 0.440497L149.599 0.34103C149.665 0.26714 149.742 0.206039 149.827 0.156305L149.982 0.099467L150.224 0H150.822C151.356 0.0554174 151.827 0.375133 152.073 0.852575L155.226 7.20426C155.453 7.66891 155.895 7.99147 156.405 8.06962L163.467 9.09413C164.064 9.17939 164.563 9.59146 164.76 10.1598C164.946 10.7297 164.786 11.3549 164.348 11.7655L159.034 16.7957Z" fill="url(#paint0_linear_820_1814)"/>
<defs>
<linearGradient id="paint0_linear_820_1814" x1="137" y1="11.5" x2="152.5" y2="11.5" gradientUnits="userSpaceOnUse">
<stop stop-color="#FABF35"/>
<stop offset="1" stop-color="#E3E3E3"/>
</linearGradient>
</defs>
</svg>
