<svg width="60" height="60" viewBox="0 0 60 60" fill="none" xmlns="http://www.w3.org/2000/svg">
<circle cx="30" cy="30" r="30" fill="black"/>
<path d="M30.92 23.04L25.8 37H22.4L17.28 23.04H20.28L24.12 34.14L27.94 23.04H30.92ZM37.4188 37.14C36.4454 37.14 35.5654 36.9733 34.7788 36.64C34.0054 36.3067 33.3921 35.8267 32.9388 35.2C32.4854 34.5733 32.2521 33.8333 32.2388 32.98H35.2388C35.2788 33.5533 35.4788 34.0067 35.8388 34.34C36.2121 34.6733 36.7188 34.84 37.3588 34.84C38.0121 34.84 38.5254 34.6867 38.8988 34.38C39.2721 34.06 39.4588 33.6467 39.4588 33.14C39.4588 32.7267 39.3321 32.3867 39.0788 32.12C38.8254 31.8533 38.5054 31.6467 38.1188 31.5C37.7454 31.34 37.2254 31.1667 36.5588 30.98C35.6521 30.7133 34.9121 30.4533 34.3388 30.2C33.7788 29.9333 33.2921 29.54 32.8788 29.02C32.4788 28.4867 32.2788 27.78 32.2788 26.9C32.2788 26.0733 32.4854 25.3533 32.8988 24.74C33.3121 24.1267 33.8921 23.66 34.6388 23.34C35.3854 23.0067 36.2388 22.84 37.1988 22.84C38.6388 22.84 39.8054 23.1933 40.6988 23.9C41.6054 24.5933 42.1054 25.5667 42.1988 26.82H39.1188C39.0921 26.34 38.8854 25.9467 38.4988 25.64C38.1254 25.32 37.6254 25.16 36.9988 25.16C36.4521 25.16 36.0121 25.3 35.6788 25.58C35.3588 25.86 35.1988 26.2667 35.1988 26.8C35.1988 27.1733 35.3188 27.4867 35.5588 27.74C35.8121 27.98 36.1188 28.18 36.4788 28.34C36.8521 28.4867 37.3721 28.66 38.0388 28.86C38.9454 29.1267 39.6854 29.3933 40.2588 29.66C40.8321 29.9267 41.3254 30.3267 41.7388 30.86C42.1521 31.3933 42.3588 32.0933 42.3588 32.96C42.3588 33.7067 42.1654 34.4 41.7787 35.04C41.3921 35.68 40.8254 36.1933 40.0788 36.58C39.3321 36.9533 38.4454 37.14 37.4188 37.14Z" fill="white"/>
</svg>
